<?xml version="1.0" encoding="UTF-8" standalone="no"?>
<!-- Generator: Adobe Illustrator 23.0.1, SVG Export Plug-In . SVG Version: 6.00 Build 0)  -->

<svg
   xmlns:dc="http://purl.org/dc/elements/1.1/"
   xmlns:cc="http://creativecommons.org/ns#"
   xmlns:rdf="http://www.w3.org/1999/02/22-rdf-syntax-ns#"
   xmlns:svg="http://www.w3.org/2000/svg"
   xmlns="http://www.w3.org/2000/svg"
   xmlns:sodipodi="http://sodipodi.sourceforge.net/DTD/sodipodi-0.dtd"
   xmlns:inkscape="http://www.inkscape.org/namespaces/inkscape"
   version="1.1"
   id="Layer_1"
   x="0px"
   y="0px"
   viewBox="0 0 426.99323 255.79184"
   xml:space="preserve"
   sodipodi:docname="logo.svg"
   width="426.99323"
   height="255.79184"
   inkscape:version="0.92.4 (5da689c313, 2019-01-14)"><metadata
   id="metadata11"><rdf:RDF><cc:Work
       rdf:about=""><dc:format>image/svg+xml</dc:format><dc:type
         rdf:resource="http://purl.org/dc/dcmitype/StillImage" /><dc:title></dc:title></cc:Work></rdf:RDF></metadata><defs
   id="defs9" /><sodipodi:namedview
   pagecolor="#ffffff"
   bordercolor="#666666"
   borderopacity="1"
   objecttolerance="10"
   gridtolerance="10"
   guidetolerance="10"
   inkscape:pageopacity="0"
   inkscape:pageshadow="2"
   inkscape:window-width="1920"
   inkscape:window-height="1017"
   id="namedview7"
   showgrid="false"
   fit-margin-top="0"
   fit-margin-left="0"
   fit-margin-right="0"
   fit-margin-bottom="0"
   inkscape:zoom="0.78444658"
   inkscape:cx="230.65324"
   inkscape:cy="124.35832"
   inkscape:window-x="-8"
   inkscape:window-y="-8"
   inkscape:window-maximized="1"
   inkscape:current-layer="Layer_1" />
<style
   type="text/css"
   id="style2">
	.st0{fill:#FFFFFF;}
</style>
<path
   class="st0"
   d="m 346.308,20.540535 c -131.69,-79.44 -361.070003,92.419995 -345.56000327,160.909995 17.30000027,76.38 359.63000327,114.67 417.05000327,11.49 28.5,-51.19 -13.14,-137.199995 -71.49,-172.399995 z M 100.258,190.78053 c -1.240003,2.35 -3.000003,4.28 -5.270003,5.79 -2.27,1.52 -4.78,2.57 -7.5,3.18 -2.73,0.61 -5.6,0.91 -8.62,0.91 -4.67,0 -10.56,-0.68 -17.68,-2.03 -0.37,-6.14 -0.81,-11.05 -1.3,-14.74 3.23,1.44 6.11,2.44 8.64,3 2.53,0.57 4.74,0.84 6.65,0.84 2.51,0 4.51,-0.37 6,-1.1 1.49,-0.73 2.23,-1.82 2.23,-3.26 0,-0.49 -0.07,-0.96 -0.22,-1.41 -0.15,-0.44 -0.42,-0.95 -0.83,-1.51 -0.4,-0.57 -0.98,-1.17 -1.73,-1.84 l -8.15,-7.09 c -1.91,-1.61 -3.23,-2.78 -3.98,-3.5 -1.53,-1.47 -2.72,-2.84 -3.57,-4.11 -0.85,-1.27 -1.47,-2.56 -1.86,-3.87 -0.39,-1.31 -0.59,-2.7 -0.59,-4.17 0,-1.76 0.31,-3.48 0.93,-5.16 0.62,-1.69 1.55,-3.27 2.79,-4.73 1.24,-1.47 2.88,-2.74 4.93,-3.8 2.05,-1.06 4.24,-1.8 6.57,-2.18 2.33,-0.39 4.74,-0.59 7.22,-0.59 4.87,0 10.17,0.56 15.910003,1.69 0.09,1.99 0.19,3.81 0.3,5.47 0.11,1.65 0.39,4.56 0.82,8.71 -2.650003,-1.06 -5.070003,-1.81 -7.260003,-2.22 -2.19,-0.42 -4.08,-0.63 -5.66,-0.63 -2.25,0 -4.11,0.42 -5.6,1.25 -1.49,0.84 -2.23,1.87 -2.23,3.11 0,0.58 0.11,1.14 0.35,1.69 0.23,0.55 0.66,1.19 1.3,1.93 0.63,0.73 1.47,1.54 2.51,2.42 1.04,0.88 2.66,2.18 4.88,3.91 l 3.11,2.46 c 0.92,0.75 1.92,1.66 2.98,2.72 1.06,1.06 1.99,2.12 2.77,3.16 0.78,1.04 1.380003,1.99 1.800003,2.85 0.42,0.86 0.73,1.74 0.93,2.62 0.2,0.88 0.3,1.82 0.3,2.83 -0.01,2.59 -0.63,5.06 -1.87,7.4 z m 61.5,-48.82 c -0.03,0.34 -0.1,1.59 -0.22,3.75 l -0.26,4.7 c -0.06,1.01 -0.09,2.02 -0.09,3.06 -5.56,-0.23 -10.23,-0.35 -14,-0.35 -4.15,0 -6.95,0.01 -8.41,0.02 -1.45,0.01 -3.72,0.08 -6.81,0.19 l -0.53,9.94 c 3.4,0.09 7.37,0.13 11.89,0.13 1.61,0 5.91,-0.1 12.88,-0.3 -0.29,3.69 -0.56,8.08 -0.82,13.18 -4.98,-0.06 -8.81,-0.09 -11.49,-0.09 -3.98,0 -8.42,0.1 -13.35,0.3 l -0.51,10.5 h 4.97 c 1.47,0 4.51,-0.04 9.12,-0.13 l 8.94,-0.22 c 1.32,-0.03 3.54,-0.15 6.65,-0.35 -0.35,4.26 -0.63,8.67 -0.86,13.23 -7.03,-0.06 -14.74,-0.09 -23.12,-0.09 l -19.02,0.04 -6.14,0.04 c 0.72,-7.43 1.25,-13.66 1.58,-18.67 0.33,-5.01 0.66,-11.68 0.99,-19.99 0.33,-8.31 0.5,-13.82 0.5,-16.53 l -0.04,-3.8 c 6.8,0.06 15.03,0.09 24.68,0.09 8.9,0 16.75,-0.03 23.55,-0.09 z m 70.93,11.46 -1.94,35.79 -0.26,10.33 c -3.75,-0.06 -7.25,-0.09 -10.51,-0.09 -2.71,0 -6.46,0.03 -11.25,0.09 -1.5,-2.83 -2.61,-4.87 -3.32,-6.14 l -7.25,-12.32 c -2.39,-4.04 -4.59,-7.9 -6.6,-11.59 -1.32,-2.33 -2.69,-4.9 -4.1,-7.7 l -0.93,20.49 -0.46,17.26 c -3.57,-0.06 -6.29,-0.09 -8.16,-0.09 -1.58,0 -4.55,0.03 -8.89,0.09 l 0.86,-9.08 1.69,-30.77 0.48,-12.4 v -6.74 c 4.48,0.06 8.43,0.09 11.86,0.09 2.45,0 5.9,-0.03 10.35,-0.09 l 18.45,33.55 2.54,4.93 c 0.33,-4.84 0.66,-11.63 1,-20.36 0.34,-8.73 0.51,-14.77 0.51,-18.12 3.54,0.06 6.38,0.09 8.51,0.09 0.98,0 3.8,-0.03 8.46,-0.09 z m 47.49,37.36 c -1.24,2.35 -3,4.28 -5.27,5.79 -2.27,1.52 -4.78,2.57 -7.5,3.18 -2.73,0.61 -5.6,0.91 -8.62,0.91 -4.67,0 -10.56,-0.68 -17.68,-2.03 -0.37,-6.14 -0.81,-11.05 -1.3,-14.74 3.23,1.44 6.11,2.44 8.64,3 2.53,0.57 4.74,0.84 6.65,0.84 2.51,0 4.51,-0.37 6,-1.1 1.49,-0.73 2.23,-1.82 2.23,-3.26 0,-0.49 -0.07,-0.96 -0.22,-1.41 -0.15,-0.44 -0.42,-0.95 -0.83,-1.51 -0.4,-0.57 -0.98,-1.17 -1.73,-1.84 l -8.15,-7.09 c -1.91,-1.61 -3.23,-2.78 -3.98,-3.5 -1.53,-1.47 -2.72,-2.84 -3.57,-4.11 -0.85,-1.27 -1.47,-2.56 -1.86,-3.87 -0.39,-1.31 -0.59,-2.7 -0.59,-4.17 0,-1.76 0.31,-3.48 0.93,-5.16 0.62,-1.69 1.55,-3.27 2.79,-4.73 1.24,-1.47 2.88,-2.74 4.93,-3.8 2.05,-1.06 4.24,-1.8 6.57,-2.18 2.33,-0.39 4.74,-0.59 7.22,-0.59 4.87,0 10.17,0.56 15.91,1.69 0.09,1.99 0.19,3.81 0.3,5.47 0.11,1.65 0.39,4.56 0.82,8.71 -2.65,-1.06 -5.07,-1.81 -7.26,-2.22 -2.19,-0.42 -4.08,-0.63 -5.66,-0.63 -2.25,0 -4.11,0.42 -5.6,1.25 -1.49,0.84 -2.23,1.87 -2.23,3.11 0,0.58 0.11,1.14 0.35,1.69 0.24,0.55 0.66,1.19 1.3,1.93 0.63,0.73 1.47,1.54 2.51,2.42 1.04,0.88 2.66,2.18 4.88,3.91 l 3.11,2.46 c 0.92,0.75 1.92,1.66 2.98,2.72 1.06,1.06 1.99,2.12 2.77,3.16 0.78,1.04 1.38,1.99 1.8,2.85 0.42,0.86 0.73,1.74 0.93,2.62 0.2,0.88 0.3,1.82 0.3,2.83 -0.01,2.59 -0.63,5.06 -1.87,7.4 z m 77.52,-8.59 c -1.74,4.05 -4.26,7.48 -7.54,10.31 -3.28,2.83 -7.2,4.89 -11.76,6.2 -4.55,1.31 -9.29,1.96 -14.22,1.96 -4.87,0 -9.54,-0.64 -14,-1.93 -4.47,-1.28 -8.35,-3.36 -11.65,-6.22 -3.3,-2.86 -5.64,-6.05 -7.03,-9.57 -1.38,-3.52 -2.07,-7.42 -2.07,-11.71 0,-6.31 1.46,-11.85 4.38,-16.62 2.93,-4.77 7.26,-8.49 13.01,-11.17 5.74,-2.68 12.22,-4.02 19.43,-4.02 4.61,0 9.05,0.62 13.31,1.86 4.26,1.24 8,3.22 11.19,5.94 3.2,2.73 5.59,5.86 7.17,9.4 1.58,3.54 2.38,7.62 2.38,12.23 0.02,4.84 -0.86,9.28 -2.6,13.34 z m -18.04,-21.53 c 1.3,2.61 1.94,5.45 1.94,8.53 0,3.17 -0.7,6.2 -2.09,9.1 -1.4,2.89 -3.43,5.14 -6.1,6.74 -2.66,1.6 -5.6,2.4 -8.79,2.4 -3,0 -5.83,-0.72 -8.51,-2.14 -2.68,-1.43 -4.68,-3.41 -5.98,-5.94 -1.31,-2.53 -1.97,-5.33 -1.97,-8.38 0,-3.31 0.72,-6.42 2.16,-9.32 1.44,-2.89 3.5,-5.16 6.18,-6.78 2.68,-1.63 5.68,-2.44 8.99,-2.44 3.14,0 5.96,0.72 8.47,2.16 2.5,1.44 4.4,3.46 5.7,6.07 z"
   id="path4"
   inkscape:connector-curvature="0"
   style="fill:#ffffff" />
</svg>